<?xml version="1.0" encoding="UTF-8"?>
<!--Generator: Apple Native CoreSVG 149-->
<!DOCTYPE svg
PUBLIC "-//W3C//DTD SVG 1.1//EN"
       "http://www.w3.org/Graphics/SVG/1.1/DTD/svg11.dtd">
<svg version="1.1" xmlns="http://www.w3.org/2000/svg" xmlns:xlink="http://www.w3.org/1999/xlink" width="3300" height="2200">
 <!--glyph: "uni10044E.medium", point size: 100.000000, font version: "Version 16.0d12e3", template writer version: "8"-->
 <g id="Notes">
  <rect height="2200" id="artboard" style="fill:white;opacity:1" width="3300" x="0" y="0"/>
  <line id="" style="fill:none;stroke:black;opacity:1;stroke-width:0.5;" x1="263" x2="3036" y1="292" y2="292"/>
  <text style="stroke:none;fill:black;font-family:-apple-system,&quot;SF Pro Display&quot;,&quot;SF Pro Text&quot;,Helvetica,sans-serif;font-weight:bold;" transform="matrix(1 0 0 1 263 322)">Weight/Scale Variations</text>
  <text style="stroke:none;fill:black;font-family:-apple-system,&quot;SF Pro Display&quot;,&quot;SF Pro Text&quot;,Helvetica,sans-serif;text-anchor:middle;" transform="matrix(1 0 0 1 559.711 322)">Ultralight</text>
  <text style="stroke:none;fill:black;font-family:-apple-system,&quot;SF Pro Display&quot;,&quot;SF Pro Text&quot;,Helvetica,sans-serif;text-anchor:middle;" transform="matrix(1 0 0 1 856.422 322)">Thin</text>
  <text style="stroke:none;fill:black;font-family:-apple-system,&quot;SF Pro Display&quot;,&quot;SF Pro Text&quot;,Helvetica,sans-serif;text-anchor:middle;" transform="matrix(1 0 0 1 1153.13 322)">Light</text>
  <text style="stroke:none;fill:black;font-family:-apple-system,&quot;SF Pro Display&quot;,&quot;SF Pro Text&quot;,Helvetica,sans-serif;text-anchor:middle;" transform="matrix(1 0 0 1 1449.84 322)">Regular</text>
  <text style="stroke:none;fill:black;font-family:-apple-system,&quot;SF Pro Display&quot;,&quot;SF Pro Text&quot;,Helvetica,sans-serif;text-anchor:middle;" transform="matrix(1 0 0 1 1746.56 322)">Medium</text>
  <text style="stroke:none;fill:black;font-family:-apple-system,&quot;SF Pro Display&quot;,&quot;SF Pro Text&quot;,Helvetica,sans-serif;text-anchor:middle;" transform="matrix(1 0 0 1 2043.27 322)">Semibold</text>
  <text style="stroke:none;fill:black;font-family:-apple-system,&quot;SF Pro Display&quot;,&quot;SF Pro Text&quot;,Helvetica,sans-serif;text-anchor:middle;" transform="matrix(1 0 0 1 2339.98 322)">Bold</text>
  <text style="stroke:none;fill:black;font-family:-apple-system,&quot;SF Pro Display&quot;,&quot;SF Pro Text&quot;,Helvetica,sans-serif;text-anchor:middle;" transform="matrix(1 0 0 1 2636.69 322)">Heavy</text>
  <text style="stroke:none;fill:black;font-family:-apple-system,&quot;SF Pro Display&quot;,&quot;SF Pro Text&quot;,Helvetica,sans-serif;text-anchor:middle;" transform="matrix(1 0 0 1 2933.4 322)">Black</text>
  <line id="" style="fill:none;stroke:black;opacity:1;stroke-width:0.5;" x1="263" x2="3036" y1="1903" y2="1903"/>
  <g id="" transform="matrix(1 0 0 1 263 1933)">
   <path d="M9.24805 0.830078C13.5547 0.830078 17.1387-2.74414 17.1387-7.05078C17.1387-11.3574 13.5449-14.9316 9.23828-14.9316C4.94141-14.9316 1.36719-11.3574 1.36719-7.05078C1.36719-2.74414 4.95117 0.830078 9.24805 0.830078ZM9.24805-0.654297C5.70312-0.654297 2.87109-3.49609 2.87109-7.05078C2.87109-10.6055 5.69336-13.4473 9.23828-13.4473C12.793-13.4473 15.6348-10.6055 15.6445-7.05078C15.6543-3.49609 12.8027-0.654297 9.24805-0.654297ZM9.22852-3.62305C9.69727-3.62305 9.9707-3.93555 9.9707-4.45312L9.9707-6.31836L12.002-6.31836C12.5-6.31836 12.832-6.57227 12.832-7.04102C12.832-7.51953 12.5195-7.7832 12.002-7.7832L9.9707-7.7832L9.9707-9.81445C9.9707-10.332 9.69727-10.6543 9.22852-10.6543C8.75977-10.6543 8.50586-10.3125 8.50586-9.81445L8.50586-7.7832L6.49414-7.7832C5.97656-7.7832 5.64453-7.51953 5.64453-7.04102C5.64453-6.57227 5.99609-6.31836 6.49414-6.31836L8.50586-6.31836L8.50586-4.45312C8.50586-3.95508 8.75977-3.62305 9.22852-3.62305Z"/>
  </g>
  <g id="" transform="matrix(1 0 0 1 281.506 1933)">
   <path d="M11.709 2.91016C17.1582 2.91016 21.6699-1.61133 21.6699-7.05078C21.6699-12.5 17.1484-17.0117 11.6992-17.0117C6.25977-17.0117 1.74805-12.5 1.74805-7.05078C1.74805-1.61133 6.26953 2.91016 11.709 2.91016ZM11.709 1.25C7.09961 1.25 3.41797-2.44141 3.41797-7.05078C3.41797-11.6602 7.08984-15.3516 11.6992-15.3516C16.3086-15.3516 20-11.6602 20.0098-7.05078C20.0195-2.44141 16.3184 1.25 11.709 1.25ZM11.6797-2.66602C12.207-2.66602 12.5098-3.01758 12.5098-3.59375L12.5098-6.23047L15.3223-6.23047C15.8691-6.23047 16.25-6.51367 16.25-7.03125C16.25-7.55859 15.8887-7.86133 15.3223-7.86133L12.5098-7.86133L12.5098-10.6836C12.5098-11.25 12.207-11.6113 11.6797-11.6113C11.1621-11.6113 10.8789-11.2305 10.8789-10.6836L10.8789-7.86133L8.07617-7.86133C7.50977-7.86133 7.13867-7.55859 7.13867-7.03125C7.13867-6.51367 7.5293-6.23047 8.07617-6.23047L10.8789-6.23047L10.8789-3.59375C10.8789-3.03711 11.1621-2.66602 11.6797-2.66602Z"/>
  </g>
  <g id="" transform="matrix(1 0 0 1 304.924 1933)">
   <path d="M14.9707 5.66406C21.9336 5.66406 27.6953-0.0976562 27.6953-7.05078C27.6953-14.0137 21.9238-19.7754 14.9609-19.7754C8.00781-19.7754 2.25586-14.0137 2.25586-7.05078C2.25586-0.0976562 8.01758 5.66406 14.9707 5.66406ZM14.9707 3.84766C8.93555 3.84766 4.08203-1.01562 4.08203-7.05078C4.08203-13.0957 8.92578-17.9492 14.9609-17.9492C21.0059-17.9492 25.8594-13.0957 25.8691-7.05078C25.8789-1.01562 21.0156 3.84766 14.9707 3.84766ZM14.9414-1.38672C15.5176-1.38672 15.8594-1.77734 15.8594-2.38281L15.8594-6.13281L19.7754-6.13281C20.3711-6.13281 20.7812-6.46484 20.7812-7.02148C20.7812-7.59766 20.3906-7.93945 19.7754-7.93945L15.8594-7.93945L15.8594-11.8652C15.8594-12.4805 15.5176-12.8711 14.9414-12.8711C14.375-12.8711 14.0527-12.4609 14.0527-11.8652L14.0527-7.93945L10.1465-7.93945C9.53125-7.93945 9.13086-7.59766 9.13086-7.02148C9.13086-6.46484 9.55078-6.13281 10.1465-6.13281L14.0527-6.13281L14.0527-2.38281C14.0527-1.79688 14.375-1.38672 14.9414-1.38672Z"/>
  </g>
  <text style="stroke:none;fill:black;font-family:-apple-system,&quot;SF Pro Display&quot;,&quot;SF Pro Text&quot;,Helvetica,sans-serif;font-weight:bold;" transform="matrix(1 0 0 1 263 1953)">Design Variations</text>
  <text style="stroke:none;fill:black;font-family:-apple-system,&quot;SF Pro Display&quot;,&quot;SF Pro Text&quot;,Helvetica,sans-serif;" transform="matrix(1 0 0 1 263 1971)">Symbols are supported in up to nine weights and three scales.</text>
  <text style="stroke:none;fill:black;font-family:-apple-system,&quot;SF Pro Display&quot;,&quot;SF Pro Text&quot;,Helvetica,sans-serif;" transform="matrix(1 0 0 1 263 1989)">For optimal layout with text and other symbols, vertically align</text>
  <text style="stroke:none;fill:black;font-family:-apple-system,&quot;SF Pro Display&quot;,&quot;SF Pro Text&quot;,Helvetica,sans-serif;" transform="matrix(1 0 0 1 263 2007)">symbols with the adjacent text.</text>
  <line id="" style="fill:none;stroke:#00AEEF;stroke-width:0.5;opacity:1.0;" x1="776" x2="776" y1="1919" y2="1933"/>
  <g id="" transform="matrix(1 0 0 1 776 1933)">
   <path d="M3.31055 0.126953C3.82812 0.126953 4.08203-0.0683594 4.26758-0.605469L5.52734-4.0625L11.2891-4.0625L12.5488-0.605469C12.7344-0.0683594 12.9883 0.126953 13.4961 0.126953C14.0137 0.126953 14.3457-0.185547 14.3457-0.673828C14.3457-0.839844 14.3164-0.986328 14.2383-1.20117L9.6582-13.3887C9.43359-13.9941 9.0332-14.2871 8.4082-14.2871C7.80273-14.2871 7.39258-13.9941 7.17773-13.3984L2.59766-1.19141C2.51953-0.976562 2.49023-0.830078 2.49023-0.664062C2.49023-0.175781 2.80273 0.126953 3.31055 0.126953ZM6.00586-5.53711L8.37891-12.1094L8.42773-12.1094L10.8008-5.53711Z"/>
  </g>
  <line id="" style="fill:none;stroke:#00AEEF;stroke-width:0.5;opacity:1.0;" x1="792.836" x2="792.836" y1="1919" y2="1933"/>
  <text style="stroke:none;fill:black;font-family:-apple-system,&quot;SF Pro Display&quot;,&quot;SF Pro Text&quot;,Helvetica,sans-serif;font-weight:bold;" transform="matrix(1 0 0 1 776 1953)">Margins</text>
  <text style="stroke:none;fill:black;font-family:-apple-system,&quot;SF Pro Display&quot;,&quot;SF Pro Text&quot;,Helvetica,sans-serif;" transform="matrix(1 0 0 1 776 1971)">Leading and trailing margins on the left and right side of each symbol</text>
  <text style="stroke:none;fill:black;font-family:-apple-system,&quot;SF Pro Display&quot;,&quot;SF Pro Text&quot;,Helvetica,sans-serif;" transform="matrix(1 0 0 1 776 1989)">can be adjusted by modifying the x-location of the margin guidelines.</text>
  <text style="stroke:none;fill:black;font-family:-apple-system,&quot;SF Pro Display&quot;,&quot;SF Pro Text&quot;,Helvetica,sans-serif;" transform="matrix(1 0 0 1 776 2007)">Modifications are automatically applied proportionally to all</text>
  <text style="stroke:none;fill:black;font-family:-apple-system,&quot;SF Pro Display&quot;,&quot;SF Pro Text&quot;,Helvetica,sans-serif;" transform="matrix(1 0 0 1 776 2025)">scales and weights.</text>
  <g id="" transform="matrix(1 0 0 1 1289 1933)">
   <path d="M2.8418 1.86523L4.54102 3.57422C5.40039 4.44336 6.38672 4.38477 7.31445 3.35938L17.4902-7.85156C17.7539-7.76367 18.0273-7.7832 18.3398-7.8418L19.4043-8.03711L20.0684-7.36328L20.0293-6.80664C19.9902-6.30859 20.1172-5.92773 20.6055-5.44922L21.3672-4.70703C21.8457-4.22852 22.4609-4.19922 22.9297-4.66797L25.8398-7.58789C26.3086-8.05664 26.2891-8.65234 25.8105-9.13086L25.0391-9.89258C24.5605-10.3711 24.1895-10.5273 23.7109-10.4883L23.1348-10.4395L22.4902-11.0742L22.7344-12.1973C22.8613-12.7637 22.7051-13.2031 22.1191-13.7891L19.9219-15.9766C16.582-19.2969 12.1484-19.2188 9.25781-16.3281C8.83789-15.918 8.80859-15.3418 9.04297-14.9512C9.27734-14.5898 9.73633-14.3555 10.3809-14.5215C11.8457-14.8633 13.3691-14.9219 14.7949-13.9844L14.209-12.5293C14.0137-12.0508 13.9844-11.6504 14.1113-11.2891L3.04688-0.898438C2.06055 0.0195312 1.98242 0.996094 2.8418 1.86523ZM10.752-15.957C13.1836-17.7344 16.4746-17.4316 18.7012-15.2051L21.1328-12.793C21.3672-12.5586 21.4062-12.373 21.3379-12.0312L21.0156-10.5469L22.5195-9.0625L23.5059-9.12109C23.7598-9.13086 23.8379-9.11133 24.0332-8.91602L24.6094-8.33984L22.168-5.89844L21.5918-6.47461C21.3965-6.66992 21.3672-6.74805 21.377-7.01172L21.4453-7.98828L19.9512-9.47266L18.4277-9.21875C18.1055-9.15039 17.959-9.17969 17.7148-9.41406L15.7129-11.416C15.459-11.6504 15.4297-11.8164 15.5859-12.1875L16.4648-14.2773C14.9023-15.7324 12.8711-16.3574 10.8398-15.7617C10.6836-15.7227 10.625-15.8496 10.752-15.957ZM5.27344 2.30469L4.10156 1.14258C3.63281 0.683594 3.74023 0.341797 4.14062-0.0195312L14.9512-10.1953L16.416-8.71094L6.42578 2.27539C6.07422 2.67578 5.74219 2.77344 5.27344 2.30469Z"/>
  </g>
  <text style="stroke:none;fill:black;font-family:-apple-system,&quot;SF Pro Display&quot;,&quot;SF Pro Text&quot;,Helvetica,sans-serif;font-weight:bold;" transform="matrix(1 0 0 1 1289 1953)">Exporting</text>
  <text style="stroke:none;fill:black;font-family:-apple-system,&quot;SF Pro Display&quot;,&quot;SF Pro Text&quot;,Helvetica,sans-serif;" transform="matrix(1 0 0 1 1289 1971)">Symbols should be outlined when exporting to ensure the</text>
  <text style="stroke:none;fill:black;font-family:-apple-system,&quot;SF Pro Display&quot;,&quot;SF Pro Text&quot;,Helvetica,sans-serif;" transform="matrix(1 0 0 1 1289 1989)">design is preserved when submitting to Xcode.</text>
  <text id="template-version" style="stroke:none;fill:black;font-family:-apple-system,&quot;SF Pro Display&quot;,&quot;SF Pro Text&quot;,Helvetica,sans-serif;text-anchor:end;" transform="matrix(1 0 0 1 3036 1933)">Template v.2.0</text>
  <text style="stroke:none;fill:black;font-family:-apple-system,&quot;SF Pro Display&quot;,&quot;SF Pro Text&quot;,Helvetica,sans-serif;text-anchor:end;" transform="matrix(1 0 0 1 3036 1951)">Requires Xcode 12 or greater</text>
  <text style="stroke:none;fill:black;font-family:-apple-system,&quot;SF Pro Display&quot;,&quot;SF Pro Text&quot;,Helvetica,sans-serif;text-anchor:end;" transform="matrix(1 0 0 1 3036 1969)">Generated from plus.app.fill</text>
  <text style="stroke:none;fill:black;font-family:-apple-system,&quot;SF Pro Display&quot;,&quot;SF Pro Text&quot;,Helvetica,sans-serif;text-anchor:end;" transform="matrix(1 0 0 1 3036 1987)">Typeset at 100 points</text>
  <text style="stroke:none;fill:black;font-family:-apple-system,&quot;SF Pro Display&quot;,&quot;SF Pro Text&quot;,Helvetica,sans-serif;" transform="matrix(1 0 0 1 263 726)">Small</text>
  <text style="stroke:none;fill:black;font-family:-apple-system,&quot;SF Pro Display&quot;,&quot;SF Pro Text&quot;,Helvetica,sans-serif;" transform="matrix(1 0 0 1 263 1156)">Medium</text>
  <text style="stroke:none;fill:black;font-family:-apple-system,&quot;SF Pro Display&quot;,&quot;SF Pro Text&quot;,Helvetica,sans-serif;" transform="matrix(1 0 0 1 263 1586)">Large</text>
 </g>
 <g id="Guides">
  <g id="H-reference" style="fill:#27AAE1;stroke:none;" transform="matrix(1 0 0 1 339 696)">
   <path d="M0.976562 0L3.66211 0L12.9883-24.4629L45.752-24.4629L55.127 0L57.7637 0L30.6152-70.459L28.125-70.459ZM29.3457-67.1387L29.4434-67.1387L44.873-26.709L13.8672-26.709Z"/>
  </g>
  <line id="Baseline-S" style="fill:none;stroke:#27AAE1;opacity:1;stroke-width:0.5;" x1="263" x2="3036" y1="696" y2="696"/>
  <line id="Capline-S" style="fill:none;stroke:#27AAE1;opacity:1;stroke-width:0.5;" x1="263" x2="3036" y1="625.541" y2="625.541"/>
  <g id="H-reference" style="fill:#27AAE1;stroke:none;" transform="matrix(1 0 0 1 339 1126)">
   <path d="M0.976562 0L3.66211 0L12.9883-24.4629L45.752-24.4629L55.127 0L57.7637 0L30.6152-70.459L28.125-70.459ZM29.3457-67.1387L29.4434-67.1387L44.873-26.709L13.8672-26.709Z"/>
  </g>
  <line id="Baseline-M" style="fill:none;stroke:#27AAE1;opacity:1;stroke-width:0.5;" x1="263" x2="3036" y1="1126" y2="1126"/>
  <line id="Capline-M" style="fill:none;stroke:#27AAE1;opacity:1;stroke-width:0.5;" x1="263" x2="3036" y1="1055.54" y2="1055.54"/>
  <g id="H-reference" style="fill:#27AAE1;stroke:none;" transform="matrix(1 0 0 1 339 1556)">
   <path d="M0.976562 0L3.66211 0L12.9883-24.4629L45.752-24.4629L55.127 0L57.7637 0L30.6152-70.459L28.125-70.459ZM29.3457-67.1387L29.4434-67.1387L44.873-26.709L13.8672-26.709Z"/>
  </g>
  <line id="Baseline-L" style="fill:none;stroke:#27AAE1;opacity:1;stroke-width:0.5;" x1="263" x2="3036" y1="1556" y2="1556"/>
  <line id="Capline-L" style="fill:none;stroke:#27AAE1;opacity:1;stroke-width:0.5;" x1="263" x2="3036" y1="1485.54" y2="1485.54"/>
  <line id="left-margin" style="fill:none;stroke:#00AEEF;stroke-width:0.5;opacity:1.0;" x1="1392.96" x2="1392.96" y1="1030.79" y2="1150.12"/>
  <line id="right-margin" style="fill:none;stroke:#00AEEF;stroke-width:0.5;opacity:1.0;" x1="1506.73" x2="1506.73" y1="1030.79" y2="1150.12"/>
 </g>
 <g id="Symbols">
  <g id="Black-L" transform="matrix(1 0 0 1 2856.4 1556)">
   <path d="M129.248-87.4023C122.461-94.1406 113.574-96.1914 99.8535-96.1914L54.1504-96.1914C40.4297-96.1914 31.4941-94.1406 24.7559-87.4023C18.0176-80.6641 16.0645-71.9238 16.0645-58.1055L16.0645-12.3535C16.0645 1.46484 18.0176 10.2539 24.7559 16.9434C31.543 23.6816 40.4297 25.7324 54.1504 25.7324L99.8535 25.7324C113.574 25.7324 122.51 23.6816 129.248 16.9434C135.986 10.2051 137.939 1.46484 137.939-12.3535L137.939-58.1055C137.939-71.9238 135.986-80.7129 129.248-87.4023ZM77.002-5.27344C71.9238-5.27344 68.2617-8.93555 68.2617-14.0137L68.2617-26.3672L54.8828-26.3672C49.8047-26.3672 46.0938-30.0293 46.0938-35.1074C46.0938-40.2832 49.8047-43.9453 54.8828-43.9453L68.2617-43.9453L68.2617-56.6895C68.2617-61.7676 71.9238-65.4297 77.002-65.4297C82.1289-65.4297 85.8398-61.8164 85.8398-56.6895L85.8398-43.9453L99.2188-43.9453C104.346-43.9453 108.008-40.2832 108.008-35.1074C108.008-30.0293 104.297-26.3672 99.2188-26.3672L85.8398-26.3672L85.8398-14.0137C85.8398-8.88672 82.1289-5.27344 77.002-5.27344Z"/>
  </g>
  <g id="Heavy-L" transform="matrix(1 0 0 1 2560.69 1556)">
   <path d="M127.637-86.7676C120.996-93.3594 112.207-95.166 99.1211-95.166L52.832-95.166C39.7949-95.166 30.957-93.3594 24.4141-86.7676C17.8223-80.1758 16.0645-71.5332 16.0645-58.3984L16.0645-12.1582C16.0645 1.07422 17.8223 9.76562 24.4141 16.3086C31.0059 22.8516 39.7949 24.707 52.9297 24.707L99.1211 24.707C112.207 24.707 121.045 22.8516 127.637 16.3086C134.18 9.7168 135.938 1.07422 135.938-12.1582L135.938-58.3496C135.938-71.5332 134.18-80.2246 127.637-86.7676ZM75.9766-5.51758C71.3867-5.51758 68.2129-8.83789 68.2129-13.4277L68.2129-27.3438L53.3203-27.3438C48.7305-27.3438 45.3613-30.5664 45.3613-35.1562C45.3613-39.7461 48.6328-42.9688 53.3203-42.9688L68.2129-42.9688L68.2129-57.4707C68.2129-62.0605 71.3867-65.3809 75.9766-65.3809C80.6152-65.3809 83.8379-62.1094 83.8379-57.4707L83.8379-42.9688L98.7793-42.9688C103.467-42.9688 106.738-39.7461 106.738-35.1562C106.738-30.5664 103.369-27.3438 98.7793-27.3438L83.8379-27.3438L83.8379-13.4277C83.8379-8.74023 80.6152-5.51758 75.9766-5.51758Z"/>
  </g>
  <g id="Bold-L" transform="matrix(1 0 0 1 2265.1 1556)">
   <path d="M125.781-86.084C119.336-92.4805 110.693-94.043 98.2422-94.043L51.3672-94.043C39.1113-94.043 30.3711-92.4316 23.9746-86.0352C17.627-79.6387 16.0645-71.0938 16.0645-58.7402L16.0645-11.9141C16.0645 0.634766 17.5781 9.22852 23.9746 15.5762C30.4199 21.9727 39.0625 23.584 51.5137 23.584L98.2422 23.584C110.693 23.584 119.385 21.9727 125.781 15.5762C132.178 9.17969 133.691 0.634766 133.691-11.9141L133.691-58.5938C133.691-71.0938 132.178-79.7363 125.781-86.084ZM74.8535-5.76172C70.8496-5.76172 68.1641-8.69141 68.1641-12.7441L68.1641-28.4668L51.5137-28.4668C47.4609-28.4668 44.4824-31.1523 44.4824-35.1562C44.4824-39.209 47.3633-41.8945 51.5137-41.8945L68.1641-41.8945L68.1641-58.3008C68.1641-62.4023 70.8496-65.2832 74.8535-65.2832C78.9062-65.2832 81.6406-62.4512 81.6406-58.3008L81.6406-41.8945L98.3398-41.8945C102.49-41.8945 105.322-39.209 105.322-35.1562C105.322-31.1523 102.393-28.4668 98.3398-28.4668L81.6406-28.4668L81.6406-12.7441C81.6406-8.59375 78.9062-5.76172 74.8535-5.76172Z"/>
  </g>
  <g id="Semibold-L" transform="matrix(1 0 0 1 1969.17 1556)">
   <path d="M124.512-85.5957C118.213-91.8457 109.619-93.3105 97.6562-93.3105L50.3418-93.3105C38.623-93.3105 29.9805-91.7969 23.7305-85.5469C17.4316-79.2969 16.0645-70.8008 16.0645-58.9844L16.0645-11.7188C16.0645 0.341797 17.4316 8.83789 23.6816 15.0879C30.0293 21.3379 38.5742 22.8027 50.5859 22.8027L97.6562 22.8027C109.619 22.8027 118.262 21.3379 124.512 15.0879C130.762 8.78906 132.129 0.341797 132.129-11.7188L132.129-58.7891C132.129-70.8008 130.762-79.3457 124.512-85.5957ZM74.0723-5.95703C70.459-5.95703 68.1641-8.59375 68.1641-12.2559L68.1641-29.248L50.293-29.248C46.6309-29.248 43.8965-31.543 43.8965-35.1562C43.8965-38.8184 46.5332-41.1621 50.293-41.1621L68.1641-41.1621L68.1641-58.8867C68.1641-62.6465 70.459-65.2344 74.0723-65.2344C77.7344-65.2344 80.0781-62.6953 80.0781-58.8867L80.0781-41.1621L97.998-41.1621C101.807-41.1621 104.346-38.8184 104.346-35.1562C104.346-31.543 101.66-29.248 97.998-29.248L80.0781-29.248L80.0781-12.2559C80.0781-8.49609 77.7344-5.95703 74.0723-5.95703Z"/>
  </g>
  <g id="Medium-L" transform="matrix(1 0 0 1 1673.04 1556)">
   <path d="M123.535-85.2051C117.334-91.3574 108.838-92.7246 97.168-92.7246L49.6094-92.7246C38.2812-92.7246 29.6875-91.3574 23.5352-85.1562C17.334-79.0039 16.0645-70.5566 16.0645-59.1797L16.0645-11.5723C16.0645 0.0976562 17.334 8.54492 23.4863 14.6973C29.6875 20.8496 38.2324 22.2168 49.8535 22.2168L97.168 22.2168C108.838 22.2168 117.383 20.8496 123.535 14.6973C129.736 8.54492 130.957 0.0976562 130.957-11.5723L130.957-58.9355C130.957-70.6055 129.736-79.0527 123.535-85.2051ZM73.4863-6.10352C70.166-6.10352 68.1641-8.49609 68.1641-11.9141L68.1641-29.834L49.3652-29.834C45.9473-29.834 43.457-31.8848 43.457-35.1562C43.457-38.5254 45.8496-40.625 49.3652-40.625L68.1641-40.625L68.1641-59.375C68.1641-62.793 70.166-65.1855 73.4863-65.1855C76.8066-65.1855 78.9551-62.8906 78.9551-59.375L78.9551-40.625L97.7539-40.625C101.27-40.625 103.613-38.5254 103.613-35.1562C103.613-31.8848 101.172-29.834 97.7539-29.834L78.9551-29.834L78.9551-11.9141C78.9551-8.39844 76.8066-6.10352 73.4863-6.10352Z"/>
  </g>
  <g id="Regular-L" transform="matrix(1 0 0 1 1377.09 1556)">
   <path d="M122.314-84.7168C116.211-90.7715 107.764-91.9434 96.582-91.9434L48.584-91.9434C37.793-91.9434 29.2969-90.7227 23.2422-84.668C17.1875-78.6621 16.0645-70.2637 16.0645-59.4238L16.0645-11.4258C16.0645-0.195312 17.1387 8.20312 23.1934 14.209C29.2969 20.2637 37.7441 21.4355 48.9258 21.4355L96.582 21.4355C107.764 21.4355 116.26 20.2637 122.314 14.209C128.32 8.1543 129.443-0.195312 129.443-11.4258L129.443-59.082C129.443-70.3125 128.32-78.7109 122.314-84.7168ZM72.7051-6.29883C69.7754-6.29883 68.1152-8.39844 68.1152-11.4746L68.1152-30.5664L48.1934-30.5664C45.1172-30.5664 42.8711-32.2754 42.8711-35.1562C42.8711-38.1348 44.9707-39.8926 48.1934-39.8926L68.1152-39.8926L68.1152-59.9121C68.1152-63.0371 69.7754-65.1367 72.7051-65.1367C75.6836-65.1367 77.4414-63.1348 77.4414-59.9121L77.4414-39.8926L97.4121-39.8926C100.586-39.8926 102.637-38.1348 102.637-35.1562C102.637-32.2754 100.488-30.5664 97.4121-30.5664L77.4414-30.5664L77.4414-11.4746C77.4414-8.30078 75.6836-6.29883 72.7051-6.29883Z"/>
  </g>
  <g id="Light-L" transform="matrix(1 0 0 1 1081.26 1556)">
   <path d="M120.85-84.082C115.283-89.5996 107.617-91.0156 95.8984-91.0156L47.3633-91.0156C36.2305-91.0156 28.5156-89.5508 22.9492-84.0332C17.4316-78.5156 16.0645-70.8984 16.0645-59.7168L16.0645-11.1816C16.0645 0.585938 17.3828 8.20312 22.9004 13.6719C28.5156 19.2383 36.1328 20.6055 47.8516 20.6055L95.8984 20.6055C107.617 20.6055 115.332 19.2383 120.85 13.6719C126.367 8.1543 127.686 0.585938 127.686-11.1816L127.686-59.2285C127.686-70.9961 126.367-78.6133 120.85-84.082ZM71.8262-6.49414C69.6777-6.49414 68.3594-8.10547 68.3594-10.3516L68.3594-31.6895L46.5332-31.6895C44.2871-31.6895 42.627-33.0566 42.627-35.1562C42.627-37.3535 44.1895-38.7695 46.5332-38.7695L68.3594-38.7695L68.3594-60.6445C68.3594-62.9395 69.6777-64.502 71.8262-64.502C74.0723-64.502 75.4395-62.9883 75.4395-60.6445L75.4395-38.7695L97.2656-38.7695C99.6582-38.7695 101.221-37.3535 101.221-35.1562C101.221-33.0566 99.5117-31.6895 97.2656-31.6895L75.4395-31.6895L75.4395-10.3516C75.4395-8.05664 74.0723-6.49414 71.8262-6.49414Z"/>
  </g>
  <g id="Thin-L" transform="matrix(1 0 0 1 785.695 1556)">
   <path d="M118.945-83.252C114.014-88.0859 107.471-89.7949 94.9707-89.7949L45.752-89.7949C34.1309-89.7949 27.4414-88.0371 22.6074-83.2031C17.7734-78.3203 16.0645-71.7773 16.0645-60.1074L16.0645-10.8887C16.0645 1.66016 17.6758 8.25195 22.5098 12.9883C27.4414 17.8711 33.9844 19.5312 46.4844 19.5312L94.9707 19.5312C107.471 19.5312 114.111 17.8711 118.945 12.9883C123.779 8.1543 125.391 1.66016 125.391-10.8887L125.391-59.375C125.391-71.9238 123.779-78.4668 118.945-83.252ZM70.6543-6.78711C69.5312-6.78711 68.6523-7.71484 68.6523-8.88672L68.6523-33.1055L44.3848-33.1055C43.2129-33.1055 42.2363-34.0332 42.2363-35.1074C42.2363-36.3281 43.1641-37.2559 44.3848-37.2559L68.6523-37.2559L68.6523-61.5723C68.6523-62.793 69.5312-63.7207 70.6543-63.7207C71.9727-63.7207 72.8516-62.8418 72.8516-61.5723L72.8516-37.2559L97.1191-37.2559C98.3887-37.2559 99.2676-36.3281 99.2676-35.1074C99.2676-34.0332 98.291-33.1055 97.1191-33.1055L72.8516-33.1055L72.8516-8.88672C72.8516-7.71484 71.9727-6.78711 70.6543-6.78711Z"/>
  </g>
  <g id="Ultralight-L" transform="matrix(1 0 0 1 489.57 1556)">
   <path d="M117.969-82.8125C113.379-87.3047 107.373-89.1602 94.4824-89.1602L44.9219-89.1602C33.1055-89.1602 26.9043-87.2559 22.4121-82.7637C17.9199-78.2715 16.0645-72.2168 16.0645-60.3027L16.0645-10.7422C16.0645 2.24609 17.8223 8.25195 22.3145 12.6465C26.9043 17.1387 32.9102 18.9941 45.8008 18.9941L94.4824 18.9941C107.373 18.9941 113.477 17.1387 117.969 12.6465C122.461 8.1543 124.219 2.24609 124.219-10.7422L124.219-59.4238C124.219-72.4121 122.461-78.418 117.969-82.8125ZM70.0684-6.93359C69.4336-6.93359 68.8477-7.51953 68.8477-8.10547L68.8477-33.8379L43.3105-33.8379C42.6758-33.8379 42.041-34.5703 42.041-35.1074C42.041-35.8398 42.627-36.5234 43.3105-36.5234L68.8477-36.5234L68.8477-62.0605C68.8477-62.7441 69.4336-63.2812 70.0684-63.2812C70.8984-63.2812 71.4844-62.7441 71.4844-62.0605L71.4844-36.5234L97.0215-36.5234C97.7051-36.5234 98.291-35.8398 98.291-35.1074C98.291-34.5703 97.6562-33.8379 97.0215-33.8379L71.4844-33.8379L71.4844-8.10547C71.4844-7.51953 70.8984-6.93359 70.0684-6.93359Z"/>
  </g>
  <g id="Black-M" transform="matrix(1 0 0 1 2872.83 1126)">
   <path d="M101.611-76.1719C96.3867-81.3477 89.7949-83.3008 78.0762-83.3008L43.0664-83.3008C31.3477-83.3008 24.707-81.3477 19.5312-76.1719C14.3555-70.9961 12.4512-64.5508 12.4512-52.6855L12.4512-17.7246C12.4512-5.81055 14.3555 0.683594 19.5312 5.81055C24.7559 10.9863 31.3477 12.9395 43.0664 12.9395L78.0762 12.9395C89.7949 12.9395 96.4844 10.9863 101.611 5.81055C106.787 0.634766 108.691-5.81055 108.691-17.7246L108.691-52.6855C108.691-64.5508 106.787-71.0938 101.611-76.1719ZM60.5957-11.8164C56.3477-11.8164 53.0762-14.8926 53.0762-18.9941L53.0762-27.5879L43.7988-27.5879C39.6973-27.5879 36.6211-30.8594 36.6211-35.1562C36.6211-39.4043 39.6973-42.6758 43.7988-42.6758L53.0762-42.6758L53.0762-51.2207C53.0762-55.3711 56.3477-58.4473 60.5957-58.4473C64.8926-58.4473 68.1641-55.3711 68.1641-51.2207L68.1641-42.6758L77.3926-42.6758C81.543-42.6758 84.6191-39.4043 84.6191-35.1562C84.6191-30.8594 81.543-27.5879 77.3926-27.5879L68.1641-27.5879L68.1641-18.9941C68.1641-14.8926 64.8926-11.8164 60.5957-11.8164Z"/>
  </g>
  <g id="Heavy-M" transform="matrix(1 0 0 1 2577 1126)">
   <path d="M100.195-75.6348C95.0195-80.7617 88.3301-82.4707 77.3926-82.4707L41.9434-82.4707C31.0547-82.4707 24.3164-80.7617 19.1895-75.6348C14.0625-70.5078 12.4512-63.9648 12.4512-52.9297L12.4512-17.5293C12.4512-6.49414 14.0625 0.146484 19.1895 5.22461C24.3652 10.3516 31.0547 12.0117 41.9922 12.0117L77.3926 12.0117C88.3301 12.0117 95.0684 10.3516 100.195 5.22461C105.322 0.0976562 106.934-6.49414 106.934-17.5293L106.934-52.9297C106.934-63.9648 105.322-70.6055 100.195-75.6348ZM59.7168-12.0117C55.8105-12.0117 52.9785-14.7949 52.9785-18.6523L52.9785-28.418L42.4805-28.418C38.6719-28.418 35.8398-31.25 35.8398-35.1562C35.8398-39.0625 38.6719-41.9434 42.4805-41.9434L52.9785-41.9434L52.9785-51.8555C52.9785-55.7129 55.8105-58.4961 59.7168-58.4961C63.623-58.4961 66.5039-55.7129 66.5039-51.8555L66.5039-41.9434L76.9531-41.9434C80.8105-41.9434 83.5938-39.0625 83.5938-35.1562C83.5938-31.25 80.8105-28.418 76.9531-28.418L66.5039-28.418L66.5039-18.6523C66.5039-14.7949 63.623-12.0117 59.7168-12.0117Z"/>
  </g>
  <g id="Bold-M" transform="matrix(1 0 0 1 2281.26 1126)">
   <path d="M98.6328-75.0488C93.5059-80.127 86.7188-81.4941 76.6602-81.4941L40.7227-81.4941C30.7617-81.4941 23.9258-80.127 18.8477-75.0488C13.7695-69.9707 12.4512-63.2812 12.4512-53.2227L12.4512-17.2852C12.4512-7.17773 13.7695-0.439453 18.8477 4.58984C23.9746 9.66797 30.7617 11.0352 40.7715 11.0352L76.6602 11.0352C86.7188 11.0352 93.5547 9.66797 98.6328 4.58984C103.711-0.488281 104.98-7.17773 104.98-17.2852L104.98-53.1738C104.98-63.2812 103.711-70.0195 98.6328-75.0488ZM58.7402-12.2559C55.2246-12.2559 52.8809-14.7461 52.8809-18.2129L52.8809-29.2969L41.0156-29.2969C37.5488-29.2969 35.0098-31.6895 35.0098-35.1562C35.0098-38.6719 37.5-41.0645 41.0156-41.0645L52.8809-41.0645L52.8809-52.5879C52.8809-56.1035 55.2246-58.5938 58.7402-58.5938C62.207-58.5938 64.6484-56.1523 64.6484-52.5879L64.6484-41.0645L76.4648-41.0645C80.0293-41.0645 82.5195-38.6719 82.5195-35.1562C82.5195-31.6895 79.9805-29.2969 76.4648-29.2969L64.6484-29.2969L64.6484-18.2129C64.6484-14.6973 62.207-12.2559 58.7402-12.2559Z"/>
  </g>
  <g id="Semibold-M" transform="matrix(1 0 0 1 1985.21 1126)">
   <path d="M97.5098-74.6582C92.4316-79.6875 85.5957-80.8594 76.1719-80.8594L39.8438-80.8594C30.5664-80.8594 23.6328-79.6875 18.6035-74.6582C13.5742-69.6289 12.4512-62.793 12.4512-53.4668L12.4512-17.1387C12.4512-7.66602 13.5254-0.878906 18.6035 4.15039C23.6816 9.17969 30.5176 10.3516 39.9414 10.3516L76.1719 10.3516C85.5957 10.3516 92.4805 9.17969 97.5098 4.15039C102.539-0.878906 103.662-7.66602 103.662-17.1387L103.662-53.3691C103.662-62.8418 102.539-69.6289 97.5098-74.6582ZM58.0078-12.4023C54.834-12.4023 52.7832-14.6973 52.7832-17.9199L52.7832-29.9316L40.0391-29.9316C36.7676-29.9316 34.4238-31.9824 34.4238-35.1562C34.4238-38.3789 36.7188-40.4785 40.0391-40.4785L52.7832-40.4785L52.7832-53.0762C52.7832-56.3477 54.834-58.6426 58.0078-58.6426C61.2305-58.6426 63.3789-56.3965 63.3789-53.0762L63.3789-40.4785L76.1719-40.4785C79.4922-40.4785 81.7383-38.3789 81.7383-35.1562C81.7383-31.9824 79.3945-29.9316 76.1719-29.9316L63.3789-29.9316L63.3789-17.9199C63.3789-14.6484 61.2305-12.4023 58.0078-12.4023Z"/>
  </g>
  <g id="Medium-M" transform="matrix(1 0 0 1 1689.01 1126)">
   <path d="M96.6797-74.3652C91.6504-79.3457 84.7168-80.3711 75.7812-80.3711L39.209-80.3711C30.3711-80.3711 23.4375-79.3457 18.4082-74.3164C13.3789-69.3359 12.4512-62.4512 12.4512-53.6133L12.4512-17.041C12.4512-8.05664 13.3789-1.17188 18.4082 3.80859C23.4375 8.83789 30.3711 9.81445 39.3066 9.81445L75.7812 9.81445C84.7168 9.81445 91.6504 8.83789 96.6797 3.80859C101.709-1.2207 102.637-8.05664 102.637-17.041L102.637-53.4668C102.637-62.4512 101.709-69.3359 96.6797-74.3652ZM57.5195-12.5C54.541-12.5 52.7344-14.6484 52.7344-17.7246L52.7344-30.4199L39.2578-30.4199C36.1816-30.4199 33.9844-32.2266 33.9844-35.1562C33.9844-38.1836 36.084-40.0391 39.2578-40.0391L52.7344-40.0391L52.7344-53.4668C52.7344-56.543 54.541-58.6914 57.5195-58.6914C60.498-58.6914 62.4023-56.6406 62.4023-53.4668L62.4023-40.0391L75.8789-40.0391C79.0527-40.0391 81.1523-38.1836 81.1523-35.1562C81.1523-32.2266 78.9551-30.4199 75.8789-30.4199L62.4023-30.4199L62.4023-17.7246C62.4023-14.5508 60.498-12.5 57.5195-12.5Z"/>
  </g>
  <g id="Regular-M" transform="matrix(1 0 0 1 1392.96 1126)">
   <path d="M95.6055-73.9258C90.625-78.9062 83.5938-79.6875 75.2441-79.6875L38.3789-79.6875C30.1758-79.6875 23.1445-78.9062 18.1641-73.9258C13.1836-68.9453 12.4512-61.9629 12.4512-53.8086L12.4512-16.8945C12.4512-8.54492 13.1836-1.61133 18.1641 3.36914C23.1445 8.34961 30.1758 9.13086 38.4766 9.13086L75.2441 9.13086C83.5938 9.13086 90.625 8.34961 95.6055 3.36914C100.586-1.61133 101.318-8.54492 101.318-16.8945L101.318-53.6621C101.318-62.0117 100.586-68.9941 95.6055-73.9258ZM56.8359-12.6953C54.1504-12.6953 52.6367-14.5996 52.6367-17.4316L52.6367-31.0059L38.2812-31.0059C35.4492-31.0059 33.3984-32.5195 33.3984-35.2051C33.3984-37.9395 35.3027-39.502 38.2812-39.502L52.6367-39.502L52.6367-53.9551C52.6367-56.8359 54.1504-58.7402 56.8359-58.7402C59.5215-58.7402 61.1328-56.9336 61.1328-53.9551L61.1328-39.502L75.5859-39.502C78.5156-39.502 80.3711-37.9395 80.3711-35.2051C80.3711-32.5195 78.418-31.0059 75.5859-31.0059L61.1328-31.0059L61.1328-17.4316C61.1328-14.502 59.5215-12.6953 56.8359-12.6953Z"/>
  </g>
  <g id="Light-M" transform="matrix(1 0 0 1 1097.03 1126)">
   <path d="M94.2871-73.3887C89.7461-77.8809 83.4961-78.8574 74.6094-78.8574L37.2559-78.8574C28.7598-78.8574 22.4609-77.8809 17.9199-73.3398C13.4277-68.8477 12.4512-62.5977 12.4512-54.0527L12.4512-16.6992C12.4512-7.8125 13.3789-1.5625 17.8711 2.92969C22.4609 7.42188 28.7109 8.39844 37.5488 8.39844L74.6094 8.39844C83.4961 8.39844 89.7949 7.42188 94.2871 2.92969C98.8281-1.61133 99.7559-7.8125 99.7559-16.6992L99.7559-53.7598C99.7559-62.6465 98.8281-68.8965 94.2871-73.3887ZM56.0547-12.8906C54.0527-12.8906 52.8809-14.3555 52.8809-16.4551L52.8809-31.9824L36.8164-31.9824C34.7168-31.9824 33.1543-33.2031 33.1543-35.1562C33.1543-37.2559 34.6191-38.4766 36.8164-38.4766L52.8809-38.4766L52.8809-54.5898C52.8809-56.7383 54.0527-58.2031 56.0547-58.2031C58.1055-58.2031 59.375-56.7871 59.375-54.5898L59.375-38.4766L75.4395-38.4766C77.6367-38.4766 79.1016-37.2559 79.1016-35.1562C79.1016-33.2031 77.5391-31.9824 75.4395-31.9824L59.375-31.9824L59.375-16.4551C59.375-14.2578 58.1055-12.8906 56.0547-12.8906Z"/>
  </g>
  <g id="Thin-M" transform="matrix(1 0 0 1 801.344 1126)">
   <path d="M92.5781-72.6562C88.623-76.5137 83.3008-77.7832 73.7793-77.7832L35.8398-77.7832C26.9043-77.7832 21.4844-76.4648 17.5781-72.5586C13.6719-68.6523 12.4512-63.3789 12.4512-54.3945L12.4512-16.4551C12.4512-6.83594 13.623-1.5625 17.5293 2.29492C21.4844 6.20117 26.8066 7.4707 36.3281 7.4707L73.7793 7.4707C83.3008 7.4707 88.6719 6.20117 92.5781 2.29492C96.4844-1.61133 97.7051-6.83594 97.7051-16.4551L97.7051-53.9062C97.7051-63.4766 96.4844-68.7988 92.5781-72.6562ZM55.0293-13.1348C53.9062-13.1348 53.1738-13.9648 53.1738-15.1367L53.1738-33.3008L34.8633-33.3008C33.7402-33.3008 32.8125-34.082 32.8125-35.1562C32.8125-36.3281 33.6426-37.1582 34.8633-37.1582L53.1738-37.1582L53.1738-55.4199C53.1738-56.6406 53.9062-57.4707 55.0293-57.4707C56.25-57.4707 57.0312-56.6406 57.0312-55.4199L57.0312-37.1582L75.293-37.1582C76.5137-37.1582 77.3438-36.3281 77.3438-35.1562C77.3438-34.082 76.416-33.3008 75.293-33.3008L57.0312-33.3008L57.0312-15.1367C57.0312-13.9648 56.25-13.1348 55.0293-13.1348Z"/>
  </g>
  <g id="Ultralight-M" transform="matrix(1 0 0 1 505.17 1126)">
   <path d="M91.6992-72.2656C88.0859-75.8301 83.252-77.1973 73.3887-77.1973L35.0586-77.1973C25.9766-77.1973 20.9961-75.7812 17.4316-72.168C13.8184-68.6035 12.4512-63.7695 12.4512-54.5898L12.4512-16.3086C12.4512-6.34766 13.7695-1.5625 17.3828 2.00195C20.9961 5.56641 25.8301 6.93359 35.6934 6.93359L73.3887 6.93359C83.252 6.93359 88.1348 5.56641 91.6992 2.00195C95.3125-1.61133 96.6309-6.34766 96.6309-16.3086L96.6309-53.9551C96.6309-63.916 95.3125-68.7012 91.6992-72.2656ZM54.4922-13.2812C53.8574-13.2812 53.3203-13.8184 53.3203-14.4531L53.3203-33.9355L33.8867-33.9355C33.252-33.9355 32.666-34.5703 32.666-35.1562C32.666-35.8398 33.2031-36.4746 33.8867-36.4746L53.3203-36.4746L53.3203-55.8594C53.3203-56.5918 53.8574-57.1289 54.4922-57.1289C55.2734-57.1289 55.8105-56.5918 55.8105-55.8594L55.8105-36.4746L75.1953-36.4746C75.9277-36.4746 76.4648-35.8398 76.4648-35.1562C76.4648-34.5703 75.8789-33.9355 75.1953-33.9355L55.8105-33.9355L55.8105-14.4531C55.8105-13.8184 55.2734-13.2812 54.4922-13.2812Z"/>
  </g>
  <g id="Black-S" transform="matrix(1 0 0 1 2885.99 696)">
   <path d="M79.541-67.2852C75.4395-71.3379 70.2637-72.8516 61.1328-72.8516L33.6914-72.8516C24.5605-72.8516 19.3359-71.3379 15.2832-67.2852C11.2305-63.2324 9.76562-58.1543 9.76562-48.9258L9.76562-21.4844C9.76562-12.2559 11.2305-7.12891 15.2832-3.125C19.3848 0.927734 24.5605 2.44141 33.6914 2.44141L61.1328 2.44141C70.2637 2.44141 75.4883 0.927734 79.541-3.125C83.5938-7.17773 85.0586-12.2559 85.0586-21.4844L85.0586-48.9258C85.0586-58.1543 83.5938-63.2812 79.541-67.2852ZM47.4121-16.8945C44.0918-16.8945 41.5527-19.2871 41.5527-22.5098L41.5527-29.2969L34.2285-29.2969C31.0059-29.2969 28.6133-31.8359 28.6133-35.1562C28.6133-38.4766 31.0059-41.0156 34.2285-41.0156L41.5527-41.0156L41.5527-47.8027C41.5527-51.0254 44.0918-53.418 47.4121-53.418C50.7324-53.418 53.2715-51.0254 53.2715-47.8027L53.2715-41.0156L60.5957-41.0156C63.8184-41.0156 66.2109-38.4766 66.2109-35.1562C66.2109-31.8359 63.8184-29.2969 60.5957-29.2969L53.2715-29.2969L53.2715-22.5098C53.2715-19.2871 50.7324-16.8945 47.4121-16.8945Z"/>
  </g>
  <g id="Heavy-S" transform="matrix(1 0 0 1 2589.86 696)">
   <path d="M78.6133-66.9434C74.4629-70.9961 69.1406-72.3145 60.6934-72.3145L32.959-72.3145C24.5117-72.3145 19.1406-70.9961 15.0879-66.9434C10.9863-62.8906 9.76562-57.6172 9.76562-49.1211L9.76562-21.3379C9.76562-12.8418 10.9863-7.51953 15.0879-3.51562C19.1895 0.537109 24.5117 1.85547 32.959 1.85547L60.6934 1.85547C69.1406 1.85547 74.5117 0.537109 78.6133-3.51562C82.666-7.56836 83.8867-12.8418 83.8867-21.3379L83.8867-49.0723C83.8867-57.6172 82.666-62.8906 78.6133-66.9434ZM46.8262-17.041C43.7012-17.041 41.4551-19.2871 41.4551-22.3145L41.4551-29.7852L33.3984-29.7852C30.3223-29.7852 28.0273-32.0801 28.0273-35.1562C28.0273-38.2812 30.2734-40.5762 33.3984-40.5762L41.4551-40.5762L41.4551-48.2422C41.4551-51.3184 43.7012-53.5156 46.8262-53.5156C49.9023-53.5156 52.1973-51.3184 52.1973-48.2422L52.1973-40.5762L60.2539-40.5762C63.3789-40.5762 65.5762-38.2812 65.5762-35.1562C65.5762-32.0801 63.3301-29.7852 60.2539-29.7852L52.1973-29.7852L52.1973-22.3145C52.1973-19.2383 49.9023-17.041 46.8262-17.041Z"/>
  </g>
  <g id="Bold-S" transform="matrix(1 0 0 1 2293.79 696)">
   <path d="M77.5391-66.5527C73.4375-70.6543 67.9199-71.6797 60.2051-71.6797L32.1289-71.6797C24.4629-71.6797 18.8965-70.6543 14.8438-66.5527C10.7422-62.4512 9.76562-57.0312 9.76562-49.2676L9.76562-21.2402C9.76562-13.4766 10.7422-8.00781 14.8438-3.95508C18.9453 0.146484 24.4629 1.17188 32.1777 1.17188L60.2051 1.17188C67.9199 1.17188 73.4375 0.146484 77.5391-3.95508C81.6406-8.05664 82.6172-13.4766 82.6172-21.2402L82.6172-49.2676C82.6172-57.0312 81.6406-62.5 77.5391-66.5527ZM46.1426-17.1875C43.2617-17.1875 41.3086-19.2383 41.3086-22.1191L41.3086-30.3711L32.4219-30.3711C29.541-30.3711 27.4414-32.3242 27.4414-35.1562C27.4414-38.0859 29.4922-40.0391 32.4219-40.0391L41.3086-40.0391L41.3086-48.7305C41.3086-51.6113 43.2617-53.6621 46.1426-53.6621C49.0234-53.6621 50.9766-51.6602 50.9766-48.7305L50.9766-40.0391L59.9121-40.0391C62.8418-40.0391 64.8926-38.0859 64.8926-35.1562C64.8926-32.3242 62.793-30.3711 59.9121-30.3711L50.9766-30.3711L50.9766-22.1191C50.9766-19.1895 49.0234-17.1875 46.1426-17.1875Z"/>
  </g>
  <g id="Semibold-S" transform="matrix(1 0 0 1 1997.54 696)">
   <path d="M76.8066-66.3086C72.7051-70.4102 67.041-71.2402 59.8633-71.2402L31.5918-71.2402C24.4141-71.2402 18.75-70.4102 14.6484-66.3086C10.5469-62.207 9.76562-56.6406 9.76562-49.4141L9.76562-21.1426C9.76562-13.916 10.5469-8.34961 14.6484-4.24805C18.7988-0.146484 24.4141 0.683594 31.5918 0.683594L59.8633 0.683594C67.041 0.683594 72.7051-0.146484 76.8066-4.24805C80.9082-8.34961 81.6895-13.916 81.6895-21.1426L81.6895-49.4141C81.6895-56.6406 80.9082-62.207 76.8066-66.3086ZM45.6543-17.2852C42.9688-17.2852 41.2598-19.2383 41.2598-22.0215L41.2598-30.7617L31.7871-30.7617C29.0039-30.7617 27.002-32.4707 27.002-35.2051C27.002-37.9395 28.9551-39.6973 31.7871-39.6973L41.2598-39.6973L41.2598-49.0234C41.2598-51.8066 42.9688-53.7598 45.6543-53.7598C48.3887-53.7598 50.1465-51.8555 50.1465-49.0234L50.1465-39.6973L59.668-39.6973C62.5-39.6973 64.4043-37.9395 64.4043-35.2051C64.4043-32.4707 62.4512-30.7617 59.668-30.7617L50.1465-30.7617L50.1465-22.0215C50.1465-19.1406 48.3887-17.2852 45.6543-17.2852Z"/>
  </g>
  <g id="Medium-S" transform="matrix(1 0 0 1 1701.17 696)">
   <path d="M76.2695-66.1133C72.1191-70.2148 66.4062-70.8984 59.6191-70.8984L31.1523-70.8984C24.3652-70.8984 18.6523-70.2148 14.5508-66.1133C10.4004-61.9629 9.76562-56.2988 9.76562-49.5117L9.76562-21.0449C9.76562-14.2578 10.4004-8.54492 14.5508-4.44336C18.6523-0.341797 24.3652 0.341797 31.1523 0.341797L59.6191 0.341797C66.4062 0.341797 72.1191-0.341797 76.2695-4.44336C80.3711-8.59375 81.0059-14.2578 81.0059-21.0449L81.0059-49.5117C81.0059-56.2988 80.3711-62.0117 76.2695-66.1133ZM45.3125-17.3828C42.7246-17.3828 41.1621-19.1895 41.1621-21.9238L41.1621-31.0547L31.2988-31.0547C28.5645-31.0547 26.6602-32.6172 26.6602-35.2051C26.6602-37.8418 28.5156-39.4043 31.2988-39.4043L41.1621-39.4043L41.1621-49.2676C41.1621-51.9531 42.7246-53.8086 45.3125-53.8086C47.9004-53.8086 49.5117-52.0508 49.5117-49.2676L49.5117-39.4043L59.4727-39.4043C62.207-39.4043 64.0625-37.8418 64.0625-35.2051C64.0625-32.6172 62.1582-31.0547 59.4727-31.0547L49.5117-31.0547L49.5117-21.9238C49.5117-19.1406 47.9004-17.3828 45.3125-17.3828Z"/>
  </g>
  <g id="Regular-S" transform="matrix(1 0 0 1 1404.9 696)">
   <path d="M75.5371-65.8203C71.3867-69.9707 65.5762-70.459 59.2773-70.459L30.6152-70.459C24.3652-70.459 18.5059-69.9707 14.3555-65.8203C10.2539-61.7188 9.76562-55.9082 9.76562-49.6582L9.76562-20.9473C9.76562-14.6973 10.2539-8.88672 14.3555-4.73633C18.5059-0.634766 24.3164-0.0976562 30.6152-0.0976562L59.2773-0.0976562C65.5762-0.0976562 71.3867-0.634766 75.5371-4.73633C79.6387-8.88672 80.127-14.6973 80.127-20.9473L80.127-49.6094C80.127-55.9082 79.6387-61.7188 75.5371-65.8203ZM44.8242-17.4805C42.4316-17.4805 41.1133-19.1895 41.1133-21.7773L41.1133-31.4453L30.6152-31.4453C28.0762-31.4453 26.2207-32.7637 26.2207-35.2051C26.2207-37.6953 27.9785-39.0625 30.6152-39.0625L41.1133-39.0625L41.1133-49.6094C41.1133-52.1973 42.4316-53.9062 44.8242-53.9062C47.2656-53.9062 48.6816-52.2949 48.6816-49.6094L48.6816-39.0625L59.2285-39.0625C61.8652-39.0625 63.5742-37.6953 63.5742-35.2051C63.5742-32.7637 61.7676-31.4453 59.2285-31.4453L48.6816-31.4453L48.6816-21.7773C48.6816-19.0918 47.2656-17.4805 44.8242-17.4805Z"/>
  </g>
  <g id="Light-S" transform="matrix(1 0 0 1 1108.87 696)">
   <path d="M74.3652-65.332C70.6543-69.043 65.4785-69.7266 58.7402-69.7266L29.6387-69.7266C23.0957-69.7266 17.8711-69.043 14.1602-65.332C10.4492-61.6211 9.76562-56.4453 9.76562-49.9023L9.76562-20.8008C9.76562-14.0137 10.4004-8.88672 14.1113-5.17578C17.8711-1.46484 23.0469-0.78125 29.7852-0.78125L58.7402-0.78125C65.4785-0.78125 70.6543-1.46484 74.3652-5.17578C78.125-8.88672 78.7598-14.0137 78.7598-20.8008L78.7598-49.707C78.7598-56.4453 78.125-61.6211 74.3652-65.332ZM44.1895-17.627C42.334-17.627 41.3086-18.9453 41.3086-20.8984L41.3086-32.3242L29.3457-32.3242C27.4414-32.3242 26.0254-33.3496 26.0254-35.2051C26.0254-37.0605 27.3438-38.1348 29.3457-38.1348L41.3086-38.1348L41.3086-50.1465C41.3086-52.0996 42.334-53.418 44.1895-53.418C46.0449-53.418 47.168-52.1973 47.168-50.1465L47.168-38.1348L59.1309-38.1348C61.1328-38.1348 62.4023-37.0605 62.4023-35.2051C62.4023-33.3496 61.0352-32.3242 59.1309-32.3242L47.168-32.3242L47.168-20.8984C47.168-18.8965 46.0449-17.627 44.1895-17.627Z"/>
  </g>
  <g id="Thin-S" transform="matrix(1 0 0 1 813.063 696)">
   <path d="M72.9004-64.6973C69.6777-67.8711 65.332-68.7988 58.0078-68.7988L28.3691-68.7988C21.4355-68.7988 17.041-67.8223 13.8672-64.6484C10.6934-61.4746 9.76562-57.1289 9.76562-50.1953L9.76562-20.5566C9.76562-13.1836 10.6445-8.83789 13.8184-5.71289C17.041-2.53906 21.3867-1.61133 28.7109-1.61133L58.0078-1.61133C65.332-1.61133 69.7266-2.53906 72.9004-5.71289C76.0742-8.88672 76.9531-13.1836 76.9531-20.5566L76.9531-49.8047C76.9531-57.1777 76.0742-61.5234 72.9004-64.6973ZM43.2617-17.8711C42.2363-17.8711 41.5527-18.6523 41.5527-19.7266L41.5527-33.4473L27.6855-33.4473C26.6113-33.4473 25.7324-34.1797 25.7324-35.1562C25.7324-36.2793 26.5137-36.9629 27.6855-36.9629L41.5527-36.9629L41.5527-50.8789C41.5527-52.002 42.2363-52.7832 43.2617-52.7832C44.3848-52.7832 45.0684-52.0508 45.0684-50.8789L45.0684-36.9629L58.9844-36.9629C60.1562-36.9629 60.8887-36.2793 60.8887-35.1562C60.8887-34.1797 60.0586-33.4473 58.9844-33.4473L45.0684-33.4473L45.0684-19.7266C45.0684-18.6523 44.3848-17.8711 43.2617-17.8711Z"/>
  </g>
  <g id="Ultralight-S" transform="matrix(1 0 0 1 516.84 696)">
   <path d="M72.1191-64.3555C69.1406-67.2363 65.2344-68.2617 57.6172-68.2617L27.6855-68.2617C20.6055-68.2617 16.6016-67.1875 13.7207-64.3066C10.791-61.377 9.76562-57.4707 9.76562-50.3418L9.76562-20.459C9.76562-12.7441 10.7422-8.83789 13.6719-6.00586C16.6016-3.07617 20.5078-2.05078 28.1738-2.05078L57.6172-2.05078C65.2344-2.05078 69.1895-3.07617 72.1191-6.00586C75-8.88672 75.9766-12.7441 75.9766-20.459L75.9766-49.9023C75.9766-57.5684 75-61.4746 72.1191-64.3555ZM42.8223-17.9688C42.1875-17.9688 41.6992-18.5059 41.6992-19.1406L41.6992-34.0332L26.8066-34.0332C26.1719-34.0332 25.6348-34.5703 25.6348-35.1562C25.6348-35.8398 26.123-36.377 26.8066-36.377L41.6992-36.377L41.6992-51.2695C41.6992-51.9531 42.1875-52.4902 42.8223-52.4902C43.5547-52.4902 44.043-51.9531 44.043-51.2695L44.043-36.377L58.9355-36.377C59.6191-36.377 60.1562-35.8398 60.1562-35.1562C60.1562-34.5703 59.5703-34.0332 58.9355-34.0332L44.043-34.0332L44.043-19.1406C44.043-18.5059 43.5547-17.9688 42.8223-17.9688Z"/>
  </g>
 </g>
</svg>
